<?xml version="1.0" encoding="utf-8"?>
<svg width="800px" height="800px" viewBox="0 0 1024 1024" class="icon"  version="1.1" xmlns="http://www.w3.org/2000/svg"><path d="M725.333333 938.666667H298.666667c-23.466667 0-42.666667-19.2-42.666667-42.666667V170.666667c0-23.466667 19.2-42.666667 42.666667-42.666667h426.666666c23.466667 0 42.666667 19.2 42.666667 42.666667v725.333333c0 23.466667-19.2 42.666667-42.666667 42.666667z" fill="#8BC34A" /><path d="M597.333333 277.333333h-170.666666c-12.8 0-21.333333-8.533333-21.333334-21.333333V106.666667c0-12.8 8.533333-21.333333 21.333334-21.333334h170.666666c12.8 0 21.333333 8.533333 21.333334 21.333334v149.333333c0 12.8-8.533333 21.333333-21.333334 21.333333z" fill="#8BC34A" /><path d="M640 512h-117.333333l46.933333-234.666667L384 554.666667h117.333333l-46.933333 234.666666z" fill="#FFEB3B" /></svg>